<svg xmlns="http://www.w3.org/2000/svg" width="800" height="500" viewBox="0 0 800 500">
  <defs>
    <linearGradient id="bg" x1="0%" y1="0%" x2="100%" y2="100%">
      <stop offset="0%" style="stop-color:#070d1a"/>
      <stop offset="100%" style="stop-color:#0d1528"/>
    </linearGradient>
    <linearGradient id="purpleBlue" x1="0%" y1="0%" x2="100%" y2="0%">
      <stop offset="0%" style="stop-color:#7c3aed"/>
      <stop offset="100%" style="stop-color:#38bdf8"/>
    </linearGradient>
    <linearGradient id="htmlOrange" x1="0%" y1="0%" x2="100%" y2="100%">
      <stop offset="0%" style="stop-color:#e44d26"/>
      <stop offset="100%" style="stop-color:#f16529"/>
    </linearGradient>
    <linearGradient id="cssBlue" x1="0%" y1="0%" x2="100%" y2="100%">
      <stop offset="0%" style="stop-color:#264de4"/>
      <stop offset="100%" style="stop-color:#2965f1"/>
    </linearGradient>
    <radialGradient id="glow1" cx="20%" cy="20%" r="45%">
      <stop offset="0%" style="stop-color:#7c3aed;stop-opacity:0.14"/>
      <stop offset="100%" style="stop-color:#7c3aed;stop-opacity:0"/>
    </radialGradient>
    <radialGradient id="glow2" cx="85%" cy="80%" r="40%">
      <stop offset="0%" style="stop-color:#38bdf8;stop-opacity:0.09"/>
      <stop offset="100%" style="stop-color:#38bdf8;stop-opacity:0"/>
    </radialGradient>
    <filter id="cardShadow">
      <feDropShadow dx="0" dy="8" stdDeviation="16" flood-color="#000" flood-opacity="0.5"/>
    </filter>
    <filter id="glowFilter">
      <feDropShadow dx="0" dy="0" stdDeviation="6" flood-color="#7c3aed" flood-opacity="0.5"/>
    </filter>
  </defs>

  <!-- Background -->
  <rect width="800" height="500" fill="url(#bg)"/>
  <rect width="800" height="500" fill="url(#glow1)"/>
  <rect width="800" height="500" fill="url(#glow2)"/>

  <!-- Grid dots pattern -->
  <pattern id="dots" x="0" y="0" width="30" height="30" patternUnits="userSpaceOnUse">
    <circle cx="1" cy="1" r="1" fill="rgba(255,255,255,0.04)"/>
  </pattern>
  <rect width="800" height="500" fill="url(#dots)"/>

  <!-- Section label top center -->
  <rect x="310" y="22" width="180" height="26" rx="13" fill="rgba(124,58,237,0.12)" stroke="rgba(124,58,237,0.3)" stroke-width="1"/>
  <text x="359" y="39" font-family="Arial,sans-serif" font-size="11" font-weight="700" fill="#7c3aed" letter-spacing="2">MINI PROJECTS</text>

  <!-- ===== CARD 1 — Landing Page ===== -->
  <rect x="42" y="72" width="215" height="340" rx="14" fill="rgba(255,255,255,0.04)" stroke="rgba(255,255,255,0.08)" stroke-width="1" filter="url(#cardShadow)"/>
  <!-- Card image area -->
  <rect x="42" y="72" width="215" height="175" rx="14" fill="rgba(255,255,255,0.06)"/>
  <rect x="42" y="200" width="215" height="47" fill="rgba(255,255,255,0.06)"/>
  <!-- Browser bar mockup -->
  <rect x="52" y="82" width="195" height="16" rx="4" fill="rgba(0,0,0,0.3)"/>
  <circle cx="63" cy="90" r="3" fill="#ef4444" opacity="0.7"/>
  <circle cx="75" cy="90" r="3" fill="#fbbf24" opacity="0.7"/>
  <circle cx="87" cy="90" r="3" fill="#22c55e" opacity="0.7"/>
  <rect x="100" y="85" width="120" height="10" rx="5" fill="rgba(255,255,255,0.07)"/>
  <!-- Page hero mockup -->
  <rect x="52" y="106" width="195" height="135" rx="0" fill="rgba(124,58,237,0.08)"/>
  <!-- Navbar line -->
  <rect x="52" y="106" width="195" height="18" fill="rgba(0,0,0,0.25)"/>
  <rect x="60" y="112" width="30" height="6" rx="3" fill="rgba(124,58,237,0.6)"/>
  <rect x="170" y="112" width="20" height="6" rx="3" fill="rgba(255,255,255,0.15)"/>
  <rect x="198" y="112" width="20" height="6" rx="3" fill="rgba(255,255,255,0.15)"/>
  <rect x="226" y="112" width="14" height="6" rx="3" fill="rgba(255,255,255,0.15)"/>
  <!-- Hero content lines -->
  <rect x="70" y="136" width="90" height="10" rx="5" fill="rgba(255,255,255,0.35)"/>
  <rect x="70" y="153" width="70" height="7" rx="3" fill="rgba(148,163,184,0.3)"/>
  <rect x="70" y="166" width="80" height="7" rx="3" fill="rgba(148,163,184,0.2)"/>
  <!-- CTA button -->
  <rect x="70" y="182" width="55" height="20" rx="10" fill="url(#purpleBlue)"/>
  <rect x="133" y="182" width="50" height="20" rx="10" fill="transparent" stroke="rgba(124,58,237,0.6)" stroke-width="1"/>
  <!-- Hero image blob -->
  <circle cx="210" cy="160" r="32" fill="rgba(124,58,237,0.2)" stroke="rgba(124,58,237,0.3)" stroke-width="1.5"/>
  <circle cx="210" cy="155" r="14" fill="rgba(124,58,237,0.35)"/>
  <ellipse cx="210" cy="182" rx="22" ry="14" fill="rgba(124,58,237,0.25)"/>
  <!-- Card text -->
  <text x="55" y="226" font-family="Arial,sans-serif" font-size="13" font-weight="700" fill="#e2e8f0">Landing Page</text>
  <rect x="55" y="234" width="130" height="6" rx="3" fill="rgba(148,163,184,0.2)"/>
  <rect x="55" y="246" width="100" height="6" rx="3" fill="rgba(148,163,184,0.15)"/>
  <!-- Tags -->
  <rect x="55" y="262" width="38" height="18" rx="9" fill="rgba(228,77,38,0.15)" stroke="rgba(228,77,38,0.35)" stroke-width="1"/>
  <text x="62" y="274" font-family="Arial,sans-serif" font-size="9" font-weight="700" fill="#f16529">HTML</text>
  <rect x="101" y="262" width="32" height="18" rx="9" fill="rgba(41,101,241,0.15)" stroke="rgba(41,101,241,0.35)" stroke-width="1"/>
  <text x="108" y="274" font-family="Arial,sans-serif" font-size="9" font-weight="700" fill="#2965f1">CSS</text>
  <!-- Bottom divider -->
  <rect x="55" y="289" width="190" height="1" fill="rgba(255,255,255,0.06)"/>
  <text x="55" y="308" font-family="Arial,sans-serif" font-size="10" fill="rgba(148,163,184,0.5)">Responsive Design</text>
  <text x="55" y="323" font-family="Arial,sans-serif" font-size="10" fill="rgba(148,163,184,0.4)">Flexbox Layout</text>
  <text x="55" y="338" font-family="Arial,sans-serif" font-size="10" fill="rgba(148,163,184,0.4)">CSS Animations</text>
  <!-- Glow accent -->
  <rect x="42" y="72" width="4" height="340" rx="2" fill="url(#htmlOrange)" opacity="0.7"/>

  <!-- ===== CARD 2 — Card UI ===== -->
  <rect x="293" y="72" width="215" height="340" rx="14" fill="rgba(255,255,255,0.04)" stroke="rgba(124,58,237,0.2)" stroke-width="1" filter="url(#cardShadow)"/>
  <!-- Highlighted card (featured) -->
  <rect x="293" y="72" width="215" height="175" rx="14" fill="rgba(124,58,237,0.08)"/>
  <rect x="293" y="200" width="215" height="47" fill="rgba(124,58,237,0.08)"/>
  <!-- Browser bar -->
  <rect x="303" y="82" width="195" height="16" rx="4" fill="rgba(0,0,0,0.3)"/>
  <circle cx="314" cy="90" r="3" fill="#ef4444" opacity="0.7"/>
  <circle cx="326" cy="90" r="3" fill="#fbbf24" opacity="0.7"/>
  <circle cx="338" cy="90" r="3" fill="#22c55e" opacity="0.7"/>
  <rect x="351" y="85" width="120" height="10" rx="5" fill="rgba(255,255,255,0.07)"/>
  <!-- Card UI preview — multiple cards -->
  <rect x="303" y="106" width="195" height="135" rx="0" fill="rgba(13,21,40,0.6)"/>
  <rect x="310" y="113" width="85" height="120" rx="10" fill="rgba(255,255,255,0.05)" stroke="rgba(255,255,255,0.08)" stroke-width="1"/>
  <rect x="313" y="116" width="79" height="45" rx="8" fill="url(#purpleBlue)" opacity="0.4"/>
  <rect x="318" y="169" width="55" height="7" rx="3" fill="rgba(255,255,255,0.3)"/>
  <rect x="318" y="182" width="42" height="5" rx="2" fill="rgba(148,163,184,0.2)"/>
  <rect x="318" y="193" width="60" height="14" rx="7" fill="url(#purpleBlue)" opacity="0.8"/>
  <rect x="403" y="113" width="85" height="120" rx="10" fill="rgba(255,255,255,0.05)" stroke="rgba(124,58,237,0.25)" stroke-width="1"/>
  <rect x="406" y="116" width="79" height="45" rx="8" fill="rgba(56,189,248,0.25)"/>
  <rect x="411" y="169" width="55" height="7" rx="3" fill="rgba(255,255,255,0.3)"/>
  <rect x="411" y="182" width="42" height="5" rx="2" fill="rgba(148,163,184,0.2)"/>
  <rect x="411" y="193" width="60" height="14" rx="7" fill="rgba(56,189,248,0.5)"/>
  <!-- Card text -->
  <text x="305" y="226" font-family="Arial,sans-serif" font-size="13" font-weight="700" fill="#e2e8f0">Card UI Components</text>
  <rect x="305" y="234" width="140" height="6" rx="3" fill="rgba(148,163,184,0.2)"/>
  <rect x="305" y="246" width="110" height="6" rx="3" fill="rgba(148,163,184,0.15)"/>
  <!-- Tags -->
  <rect x="305" y="262" width="38" height="18" rx="9" fill="rgba(228,77,38,0.15)" stroke="rgba(228,77,38,0.35)" stroke-width="1"/>
  <text x="312" y="274" font-family="Arial,sans-serif" font-size="9" font-weight="700" fill="#f16529">HTML</text>
  <rect x="351" y="262" width="32" height="18" rx="9" fill="rgba(41,101,241,0.15)" stroke="rgba(41,101,241,0.35)" stroke-width="1"/>
  <text x="358" y="274" font-family="Arial,sans-serif" font-size="9" font-weight="700" fill="#2965f1">CSS</text>
  <rect x="391" y="262" width="48" height="18" rx="9" fill="rgba(251,191,36,0.12)" stroke="rgba(251,191,36,0.3)" stroke-width="1"/>
  <text x="399" y="274" font-family="Arial,sans-serif" font-size="9" font-weight="700" fill="#fbbf24">Design</text>
  <!-- Bottom -->
  <rect x="305" y="289" width="190" height="1" fill="rgba(255,255,255,0.06)"/>
  <text x="305" y="308" font-family="Arial,sans-serif" font-size="10" fill="rgba(148,163,184,0.5)">Glassmorphism Cards</text>
  <text x="305" y="323" font-family="Arial,sans-serif" font-size="10" fill="rgba(148,163,184,0.4)">CSS Grid Layout</text>
  <text x="305" y="338" font-family="Arial,sans-serif" font-size="10" fill="rgba(148,163,184,0.4)">Hover Animations</text>
  <!-- Featured badge -->
  <rect x="367" y="78" width="60" height="20" rx="10" fill="url(#purpleBlue)" filter="url(#glowFilter)"/>
  <text x="378" y="92" font-family="Arial,sans-serif" font-size="9" font-weight="700" fill="white">FEATURED</text>
  <!-- Side accent -->
  <rect x="293" y="72" width="4" height="340" rx="2" fill="url(#purpleBlue)" opacity="0.9"/>

  <!-- ===== CARD 3 — Form / Login ===== -->
  <rect x="544" y="72" width="215" height="340" rx="14" fill="rgba(255,255,255,0.04)" stroke="rgba(255,255,255,0.08)" stroke-width="1" filter="url(#cardShadow)"/>
  <rect x="544" y="72" width="215" height="175" rx="14" fill="rgba(255,255,255,0.05)"/>
  <rect x="544" y="200" width="215" height="47" fill="rgba(255,255,255,0.05)"/>
  <!-- Browser bar -->
  <rect x="554" y="82" width="195" height="16" rx="4" fill="rgba(0,0,0,0.3)"/>
  <circle cx="565" cy="90" r="3" fill="#ef4444" opacity="0.7"/>
  <circle cx="577" cy="90" r="3" fill="#fbbf24" opacity="0.7"/>
  <circle cx="589" cy="90" r="3" fill="#22c55e" opacity="0.7"/>
  <rect x="602" y="85" width="120" height="10" rx="5" fill="rgba(255,255,255,0.07)"/>
  <!-- Login form mockup -->
  <rect x="554" y="106" width="195" height="135" rx="0" fill="rgba(7,13,26,0.5)"/>
  <rect x="580" y="112" width="143" height="122" rx="12" fill="rgba(255,255,255,0.04)" stroke="rgba(255,255,255,0.07)" stroke-width="1"/>
  <text x="622" y="131" font-family="Arial,sans-serif" font-size="10" font-weight="700" fill="rgba(255,255,255,0.5)">Login</text>
  <!-- Input fields -->
  <rect x="590" y="138" width="123" height="18" rx="6" fill="rgba(255,255,255,0.06)" stroke="rgba(255,255,255,0.1)" stroke-width="1"/>
  <text x="597" y="151" font-family="Arial,sans-serif" font-size="8" fill="rgba(148,163,184,0.5)">Email</text>
  <rect x="590" y="162" width="123" height="18" rx="6" fill="rgba(255,255,255,0.06)" stroke="rgba(124,58,237,0.4)" stroke-width="1"/>
  <text x="597" y="175" font-family="Arial,sans-serif" font-size="8" fill="rgba(148,163,184,0.5)">Password</text>
  <!-- Submit button -->
  <rect x="590" y="187" width="123" height="20" rx="10" fill="url(#purpleBlue)"/>
  <text x="630" y="200" font-family="Arial,sans-serif" font-size="9" font-weight="700" fill="white">Sign In</text>
  <!-- Card text -->
  <text x="556" y="226" font-family="Arial,sans-serif" font-size="13" font-weight="700" fill="#e2e8f0">Form &amp; Login UI</text>
  <rect x="556" y="234" width="125" height="6" rx="3" fill="rgba(148,163,184,0.2)"/>
  <rect x="556" y="246" width="105" height="6" rx="3" fill="rgba(148,163,184,0.15)"/>
  <!-- Tags -->
  <rect x="556" y="262" width="38" height="18" rx="9" fill="rgba(228,77,38,0.15)" stroke="rgba(228,77,38,0.35)" stroke-width="1"/>
  <text x="563" y="274" font-family="Arial,sans-serif" font-size="9" font-weight="700" fill="#f16529">HTML</text>
  <rect x="602" y="262" width="32" height="18" rx="9" fill="rgba(41,101,241,0.15)" stroke="rgba(41,101,241,0.35)" stroke-width="1"/>
  <text x="609" y="274" font-family="Arial,sans-serif" font-size="9" font-weight="700" fill="#2965f1">CSS</text>
  <!-- Bottom -->
  <rect x="556" y="289" width="190" height="1" fill="rgba(255,255,255,0.06)"/>
  <text x="556" y="308" font-family="Arial,sans-serif" font-size="10" fill="rgba(148,163,184,0.5)">Form Validation UI</text>
  <text x="556" y="323" font-family="Arial,sans-serif" font-size="10" fill="rgba(148,163,184,0.4)">CSS Variables</text>
  <text x="556" y="338" font-family="Arial,sans-serif" font-size="10" fill="rgba(148,163,184,0.4)">Dark Theme</text>
  <!-- Side accent -->
  <rect x="544" y="72" width="4" height="340" rx="2" fill="url(#cssBlue)" opacity="0.7"/>

  <!-- Bottom bar -->
  <rect x="0" y="440" width="800" height="60" fill="rgba(13,21,40,0.85)"/>
  <rect x="0" y="440" width="800" height="1" fill="rgba(255,255,255,0.06)"/>
  <!-- HTML5 logo icon area -->
  <rect x="32" y="453" width="34" height="34" rx="8" fill="rgba(228,77,38,0.15)" stroke="rgba(228,77,38,0.3)" stroke-width="1"/>
  <text x="40" y="475" font-family="Arial,sans-serif" font-size="16" font-weight="900" fill="#f16529">5</text>
  <!-- CSS3 icon area -->
  <rect x="76" y="453" width="34" height="34" rx="8" fill="rgba(41,101,241,0.15)" stroke="rgba(41,101,241,0.3)" stroke-width="1"/>
  <text x="82" y="475" font-family="Arial,sans-serif" font-size="14" font-weight="900" fill="#2965f1">3</text>
  <!-- Label -->
  <text x="122" y="466" font-family="Arial,sans-serif" font-size="13" font-weight="700" fill="#e2e8f0">HTML &amp; CSS Mini Projects</text>
  <text x="122" y="482" font-family="Arial,sans-serif" font-size="11" fill="rgba(148,163,184,0.6)">3 projects  •  Frontend Development  •  Responsive UI</text>
  <!-- right count -->
  <text x="680" y="468" font-family="Arial,sans-serif" font-size="20" font-weight="800" fill="rgba(124,58,237,0.6)">3</text>
  <text x="675" y="482" font-family="Arial,sans-serif" font-size="9" fill="rgba(148,163,184,0.5)">Projects</text>
</svg>
